<svg xmlns="http://www.w3.org/2000/svg" viewBox="0 0 690 1440" width="690" height="1440"><g xmlns="http://www.w3.org/2000/svg" transform="matrix(0 -1 1 0 -0 1440)"><g fill="None" fill-opacity="0.0" stroke="#000000" stroke-opacity="0.00" stroke-width="0.3"><path d=" M 0.00 131.00  C 61.93 160.35 118.79 191.40 189.00 197.00 C 259.21 202.60 324.59 170.27 385.70 140.69 C 446.80 111.12 505.45 73.08 577.02 77.98 C 648.59 82.88 711.23 109.29 779.68 130.32 C 848.12 151.36 910.94 171.59 985.00 181.00 C 1059.06 190.41 1135.12 170.02 1207.22 154.22 C 1279.33 138.43 1364.55 136.69 1440.00 131.00 L 1440.00 0.00 L 0.00 0.00 L 0.00 131.00 Z" /></g><g fill="None" fill-opacity="0.0" stroke="#B8E7E7" stroke-opacity="0.40" stroke-width="0.3"><path d=" M 0.00 131.00  L 0.00 306.00 C 41.52 302.52 89.30 298.22 131.00 298.00 C 172.70 297.78 215.61 300.69 252.00 309.00 C 288.39 317.31 316.93 327.54 350.70 338.31 C 384.46 349.08 411.45 356.97 447.67 364.33 C 483.89 371.68 528.72 369.20 563.08 361.08 C 597.43 352.95 628.82 343.25 660.74 330.74 C 692.67 318.23 724.11 306.63 755.03 296.03 C 785.94 285.43 813.96 277.90 848.70 270.35 C 883.43 262.81 927.24 258.97 967.00 260.00 C 1006.76 261.03 1048.55 267.45 1086.67 275.33 C 1124.79 283.20 1153.72 288.71 1191.67 296.33 C 1229.63 303.95 1268.27 308.78 1310.00 310.00 C 1351.73 311.22 1397.57 309.29 1439.07 306.07 L 1440.00 131.00 C 1364.55 136.69 1279.33 138.43 1207.22 154.22 C 1135.12 170.02 1059.06 190.41 985.00 181.00 C 910.94 171.59 848.12 151.36 779.68 130.32 C 711.23 109.29 648.59 82.88 577.02 77.98 C 505.45 73.08 446.80 111.12 385.70 140.69 C 324.59 170.27 259.21 202.60 189.00 197.00 C 118.79 191.40 61.93 160.35 0.00 131.00 Z" /></g><g fill="None" fill-opacity="0.0" stroke="#B9E9E9" stroke-opacity="0.72" stroke-width="0.3"><path d=" M 0.00 306.00  L 0.00 481.00 C 57.56 497.54 113.26 514.53 175.00 515.00 C 236.74 515.47 285.89 492.48 341.08 469.08 C 396.26 445.67 451.78 432.20 515.00 432.00 C 578.22 431.80 649.11 438.98 710.07 448.93 C 771.04 458.87 829.85 467.66 891.00 477.00 C 952.15 486.34 1012.24 497.84 1073.22 506.78 C 1134.21 515.72 1204.16 521.66 1267.00 520.00 C 1329.84 518.34 1382.62 500.58 1440.00 481.00 L 1440.00 306.00 C 1397.57 309.29 1351.73 311.22 1310.00 310.00 C 1268.27 308.78 1229.63 303.95 1191.67 296.33 C 1153.72 288.71 1124.79 283.20 1086.67 275.33 C 1048.55 267.45 1006.76 261.03 967.00 260.00 C 927.24 258.97 883.43 262.81 848.70 270.35 C 813.96 277.90 785.94 285.43 755.03 296.03 C 724.11 306.63 692.67 318.23 660.74 330.74 C 628.82 343.25 597.43 352.95 563.08 361.08 C 528.72 369.20 483.89 371.68 447.67 364.33 C 411.45 356.97 384.46 349.08 350.70 338.31 C 316.93 327.54 288.39 317.31 252.00 309.00 C 215.61 300.69 172.70 297.78 131.00 298.00 C 89.30 298.22 41.52 302.52 0.00 306.00 Z" /></g><g fill="None" fill-opacity="0.0" stroke="#BBE9E9" stroke-opacity="1.00" stroke-width="0.3"><path d=" M 0.00 481.00  L 0.00 690.00 L 1440.00 690.00 L 1440.00 481.00 C 1382.62 500.58 1329.84 518.34 1267.00 520.00 C 1204.16 521.66 1134.21 515.72 1073.22 506.78 C 1012.24 497.84 952.15 486.34 891.00 477.00 C 829.85 467.66 771.04 458.87 710.07 448.93 C 649.11 438.98 578.22 431.80 515.00 432.00 C 451.78 432.20 396.26 445.67 341.08 469.08 C 285.89 492.48 236.74 515.47 175.00 515.00 C 113.26 514.53 57.56 497.54 0.00 481.00 Z" /></g><g fill="#000000" fill-opacity="0.00" stroke="None"><path d=" M 0.00 131.00  C 61.93 160.35 118.79 191.40 189.00 197.00 C 259.21 202.60 324.59 170.27 385.70 140.69 C 446.80 111.12 505.45 73.08 577.02 77.98 C 648.59 82.88 711.23 109.29 779.68 130.32 C 848.12 151.36 910.94 171.59 985.00 181.00 C 1059.06 190.41 1135.12 170.02 1207.22 154.22 C 1279.33 138.43 1364.55 136.69 1440.00 131.00 L 1440.00 0.00 L 0.00 0.00 L 0.00 131.00 Z" /></g><g fill="#B8E7E7" fill-opacity="0.40" stroke="None"><path d=" M 0.00 131.00  L 0.00 306.00 C 41.52 302.52 89.30 298.22 131.00 298.00 C 172.70 297.78 215.61 300.69 252.00 309.00 C 288.39 317.31 316.93 327.54 350.70 338.31 C 384.46 349.08 411.45 356.97 447.67 364.33 C 483.89 371.68 528.72 369.20 563.08 361.08 C 597.43 352.95 628.82 343.25 660.74 330.74 C 692.67 318.23 724.11 306.63 755.03 296.03 C 785.94 285.43 813.96 277.90 848.70 270.35 C 883.43 262.81 927.24 258.97 967.00 260.00 C 1006.76 261.03 1048.55 267.45 1086.67 275.33 C 1124.79 283.20 1153.72 288.71 1191.67 296.33 C 1229.63 303.95 1268.27 308.78 1310.00 310.00 C 1351.73 311.22 1397.57 309.29 1439.07 306.07 L 1440.00 131.00 C 1364.55 136.69 1279.33 138.43 1207.22 154.22 C 1135.12 170.02 1059.06 190.41 985.00 181.00 C 910.94 171.59 848.12 151.36 779.68 130.32 C 711.23 109.29 648.59 82.88 577.02 77.98 C 505.45 73.08 446.80 111.12 385.70 140.69 C 324.59 170.27 259.21 202.60 189.00 197.00 C 118.79 191.40 61.93 160.35 0.00 131.00 Z" /></g><g fill="#B9E9E9" fill-opacity="0.72" stroke="None"><path d=" M 0.00 306.00  L 0.00 481.00 C 57.56 497.54 113.26 514.53 175.00 515.00 C 236.74 515.47 285.89 492.48 341.08 469.08 C 396.26 445.67 451.78 432.20 515.00 432.00 C 578.22 431.80 649.11 438.98 710.07 448.93 C 771.04 458.87 829.85 467.66 891.00 477.00 C 952.15 486.34 1012.24 497.84 1073.22 506.78 C 1134.21 515.72 1204.16 521.66 1267.00 520.00 C 1329.84 518.34 1382.62 500.58 1440.00 481.00 L 1440.00 306.00 C 1397.57 309.29 1351.73 311.22 1310.00 310.00 C 1268.27 308.78 1229.63 303.95 1191.67 296.33 C 1153.72 288.71 1124.79 283.20 1086.67 275.33 C 1048.55 267.45 1006.76 261.03 967.00 260.00 C 927.24 258.97 883.43 262.81 848.70 270.35 C 813.96 277.90 785.94 285.43 755.03 296.03 C 724.11 306.63 692.67 318.23 660.74 330.74 C 628.82 343.25 597.43 352.95 563.08 361.08 C 528.72 369.20 483.89 371.68 447.67 364.33 C 411.45 356.97 384.46 349.08 350.70 338.31 C 316.93 327.54 288.39 317.31 252.00 309.00 C 215.61 300.69 172.70 297.78 131.00 298.00 C 89.30 298.22 41.52 302.52 0.00 306.00 Z" /></g><g fill="#BBE9E9" fill-opacity="1.00" stroke="None"><path d=" M 0.00 481.00  L 0.00 690.00 L 1440.00 690.00 L 1440.00 481.00 C 1382.62 500.58 1329.84 518.34 1267.00 520.00 C 1204.16 521.66 1134.21 515.72 1073.22 506.78 C 1012.24 497.84 952.15 486.34 891.00 477.00 C 829.85 467.66 771.04 458.87 710.07 448.93 C 649.11 438.98 578.22 431.80 515.00 432.00 C 451.78 432.20 396.26 445.67 341.08 469.08 C 285.89 492.48 236.74 515.47 175.00 515.00 C 113.26 514.53 57.56 497.54 0.00 481.00 Z" /></g></g></svg>